<svg width="1072" height="400" viewBox="0 0 1072 400" fill="none" xmlns="http://www.w3.org/2000/svg">
<path d="M120 272V130.262C120 126.142 123.116 122.739 127.235 122.799C147.355 123.093 202.5 130.05 202.5 197.5C202.5 264.159 148.64 276.958 127.957 279.416C123.569 279.937 120 276.418 120 272Z" fill="black" stroke="black"/>
<path d="M230.5 200.54V128.355C230.5 126.524 231.722 124.94 233.521 124.6C246.079 122.228 293.5 116.332 293.5 162.544C293.5 208.486 246.632 205.907 233.745 204.33C231.838 204.096 230.5 202.461 230.5 200.54Z" fill="black" stroke="black"/>
<path d="M983.19 240C978.817 240 975.67 239.04 973.75 237.12C971.83 235.093 970.87 231.84 970.87 227.36V193.44H962.87C962.87 191.627 962.977 190.453 963.19 189.92C963.403 189.387 964.043 188.96 965.11 188.64C968.63 187.68 971.403 186.187 973.43 184.16C975.457 182.133 977.11 179.2 978.39 175.36C978.71 174.187 979.243 173.493 979.99 173.28C980.737 172.96 982.55 172.8 985.43 172.8V187.2H998.55C998.55 188.587 998.337 189.867 997.91 191.04C997.483 192.107 996.897 192.907 996.15 193.44H985.43V229.44C985.43 232.64 986.763 234.24 989.43 234.24C990.603 234.24 991.883 233.867 993.27 233.12C994.763 232.373 996.097 231.36 997.27 230.08L998.55 231.68C993.963 237.227 988.843 240 983.19 240Z" fill="black"/>
<path d="M940.834 234.72C943.927 234.72 946.647 234.187 948.994 233.12C951.34 231.947 953.634 230.027 955.874 227.36L957.794 228.8C955.34 232.32 952.194 235.093 948.354 237.12C944.62 239.04 940.514 240 936.034 240C931.127 240 926.7 238.827 922.754 236.48C918.914 234.133 915.874 230.933 913.634 226.88C911.394 222.72 910.274 218.027 910.274 212.8C910.274 204.48 912.78 197.867 917.794 192.96C922.914 187.947 929.687 185.44 938.114 185.44C944.087 185.44 948.94 186.88 952.674 189.76C956.514 192.533 958.434 196.16 958.434 200.64C958.434 205.76 956.247 209.867 951.874 212.96C947.607 215.947 941.74 217.44 934.274 217.44C931.287 217.44 928.567 217.227 926.114 216.8C926.647 222.347 928.247 226.72 930.914 229.92C933.58 233.12 936.887 234.72 940.834 234.72ZM936.354 189.28C933.047 189.28 930.434 191.307 928.514 195.36C926.7 199.307 925.794 204.853 925.794 212V214.56C926.967 214.56 928.407 214.453 930.114 214.24C934.594 213.707 938.007 212.267 940.354 209.92C942.807 207.467 944.034 204.267 944.034 200.32C944.034 197.12 943.287 194.507 941.794 192.48C940.407 190.347 938.594 189.28 936.354 189.28ZM949.634 179.52L936.514 170.56L923.394 179.52L920.994 177.44C923.02 173.6 925.207 170.133 927.554 167.04C929.9 163.84 931.98 161.493 933.794 160H939.234C942.754 162.773 947.02 168.587 952.034 177.44L949.634 179.52Z" fill="black"/>
<path d="M894.373 185.44C897.786 185.44 900.559 186.453 902.693 188.48C904.826 190.4 905.893 192.907 905.893 196C905.893 198.88 905.039 201.227 903.333 203.04C901.626 204.747 899.386 205.6 896.613 205.6C894.479 205.6 892.506 205.173 890.693 204.32C892.613 202.72 893.573 200.32 893.573 197.12C893.573 195.627 893.253 194.453 892.613 193.6C891.973 192.747 891.119 192.32 890.053 192.32C887.493 192.32 885.359 194.933 883.653 200.16C881.946 205.28 881.093 211.68 881.093 219.36C881.093 223.307 881.306 226.453 881.733 228.8C882.266 231.147 883.119 233.333 884.293 235.36L885.573 236.96L884.293 238.56H861.093L860.133 235.84L862.373 235.36C864.079 234.933 865.199 234.293 865.733 233.44C866.266 232.48 866.533 230.667 866.533 228V196.8C866.533 194.773 865.839 193.76 864.453 193.76H859.493L858.853 192C860.879 190.187 863.386 188.693 866.373 187.52C869.466 186.347 872.506 185.76 875.493 185.76C876.879 185.76 877.999 186.08 878.853 186.72C879.706 187.36 880.133 188.213 880.133 189.28V200.96H880.613C882.853 190.613 887.439 185.44 894.373 185.44Z" fill="black"/>
<path d="M854.233 187.2C854.233 191.787 853.112 195.84 850.872 199.36C848.739 202.773 845.859 205.387 842.233 207.2C838.713 209.013 834.979 209.92 831.033 209.92C826.873 209.92 822.926 208.853 819.193 206.72L819.513 205.28L822.233 205.44L824.953 205.28C829.113 204.64 832.366 202.773 834.712 199.68C837.059 196.48 838.233 192.267 838.233 187.04C838.233 181.173 836.899 176.267 834.233 172.32C831.673 168.267 828.099 166.24 823.513 166.24C821.059 166.24 819.246 166.933 818.073 168.32C817.006 169.707 816.473 171.253 816.473 172.96V217.6C816.473 221.867 816.792 225.227 817.432 227.68C818.179 230.133 819.459 232.587 821.272 235.04L822.552 236.96L821.272 238.56H793.432L792.312 235.68C795.086 234.933 797.006 234.24 798.073 233.6C799.246 232.96 800.046 232.053 800.473 230.88C800.899 229.707 801.112 227.84 801.112 225.28V182.72C801.112 178.987 800.792 176.16 800.152 174.24C799.619 172.213 798.286 170.56 796.152 169.28L794.233 168.16L794.872 166.08C797.966 165.12 801.966 164.267 806.872 163.52C811.886 162.773 816.632 162.4 821.112 162.4C831.992 162.4 840.206 164.693 845.753 169.28C851.406 173.76 854.233 179.733 854.233 187.2Z" fill="black"/>
<path d="M776.091 185.44C779.505 185.44 782.278 186.453 784.411 188.48C786.545 190.4 787.611 192.907 787.611 196C787.611 198.88 786.758 201.227 785.051 203.04C783.345 204.747 781.105 205.6 778.331 205.6C776.198 205.6 774.225 205.173 772.411 204.32C774.331 202.72 775.291 200.32 775.291 197.12C775.291 195.627 774.971 194.453 774.331 193.6C773.691 192.747 772.838 192.32 771.771 192.32C769.211 192.32 767.078 194.933 765.371 200.16C763.665 205.28 762.811 211.68 762.811 219.36C762.811 223.307 763.025 226.453 763.451 228.8C763.985 231.147 764.838 233.333 766.011 235.36L767.291 236.96L766.011 238.56H742.811L741.851 235.84L744.091 235.36C745.798 234.933 746.918 234.293 747.451 233.44C747.985 232.48 748.251 230.667 748.251 228V196.8C748.251 194.773 747.558 193.76 746.171 193.76H741.211L740.571 192C742.598 190.187 745.105 188.693 748.091 187.52C751.185 186.347 754.225 185.76 757.211 185.76C758.598 185.76 759.718 186.08 760.571 186.72C761.425 187.36 761.851 188.213 761.851 189.28V200.96H762.331C764.571 190.613 769.158 185.44 776.091 185.44Z" fill="black"/>
<path d="M716.615 234.72C719.708 234.72 722.428 234.187 724.775 233.12C727.122 231.947 729.415 230.027 731.655 227.36L733.575 228.8C731.122 232.32 727.975 235.093 724.135 237.12C720.402 239.04 716.295 240 711.815 240C706.908 240 702.482 238.827 698.535 236.48C694.695 234.133 691.655 230.933 689.415 226.88C687.175 222.72 686.055 218.027 686.055 212.8C686.055 204.48 688.562 197.867 693.575 192.96C698.695 187.947 705.468 185.44 713.895 185.44C719.868 185.44 724.722 186.88 728.455 189.76C732.295 192.533 734.215 196.16 734.215 200.64C734.215 205.76 732.028 209.867 727.655 212.96C723.388 215.947 717.522 217.44 710.055 217.44C707.068 217.44 704.348 217.227 701.895 216.8C702.428 222.347 704.028 226.72 706.695 229.92C709.362 233.12 712.668 234.72 716.615 234.72ZM712.135 189.28C708.828 189.28 706.215 191.307 704.295 195.36C702.482 199.307 701.575 204.853 701.575 212V214.56C702.748 214.56 704.188 214.453 705.895 214.24C710.375 213.707 713.788 212.267 716.135 209.92C718.588 207.467 719.815 204.267 719.815 200.32C719.815 197.12 719.068 194.507 717.575 192.48C716.188 190.347 714.375 189.28 712.135 189.28Z" fill="black"/>
<path d="M672.309 229.44C672.309 232.64 673.322 234.24 675.349 234.24C677.375 234.24 679.349 233.44 681.269 231.84L682.549 233.44C678.602 237.813 673.962 240 668.629 240C664.789 240 662.015 239.04 660.309 237.12C658.602 235.093 657.749 231.84 657.749 227.36V195.68C657.749 194.187 657.055 193.44 655.669 193.44H650.709L650.229 191.68C652.362 189.867 655.029 188.373 658.229 187.2C661.429 186.027 664.629 185.44 667.829 185.44C669.109 185.44 670.175 185.76 671.029 186.4C671.882 187.04 672.309 187.893 672.309 188.96V229.44ZM656.149 170.08C656.149 168.16 657.215 166.027 659.349 163.68C661.482 161.333 663.455 160.16 665.269 160.16C667.189 160.16 669.215 161.333 671.349 163.68C673.589 166.027 674.709 168.16 674.709 170.08C674.709 172.107 673.589 174.293 671.349 176.64C669.215 178.88 667.189 180 665.269 180C663.455 180 661.482 178.88 659.349 176.64C657.215 174.293 656.149 172.107 656.149 170.08Z" fill="black"/>
<path d="M615.645 196.32C615.645 198.987 616.658 201.173 618.685 202.88C620.818 204.48 624.018 206.293 628.285 208.32C631.805 210.027 634.525 211.52 636.445 212.8C638.365 213.973 640.018 215.573 641.405 217.6C642.898 219.627 643.645 222.027 643.645 224.8C643.645 229.387 641.458 233.067 637.085 235.84C632.818 238.613 627.058 240 619.805 240C614.365 240 609.885 239.04 606.365 237.12C602.845 235.093 601.085 232.48 601.085 229.28C601.085 227.147 601.885 225.387 603.485 224C605.085 222.507 607.058 221.76 609.405 221.76C611.218 221.76 613.032 222.133 614.845 222.88C613.032 224.267 612.125 226.507 612.125 229.6C612.125 231.733 612.872 233.387 614.365 234.56C615.858 235.733 617.672 236.32 619.805 236.32C622.258 236.32 624.338 235.68 626.045 234.4C627.858 233.12 628.765 231.307 628.765 228.96C628.765 226.72 627.858 224.96 626.045 223.68C624.338 222.293 621.618 220.693 617.885 218.88C614.472 217.28 611.698 215.84 609.565 214.56C607.538 213.173 605.778 211.36 604.285 209.12C602.792 206.88 602.045 204.16 602.045 200.96C602.045 196.16 604.072 192.373 608.125 189.6C612.178 186.827 617.298 185.44 623.485 185.44C628.925 185.44 633.352 186.453 636.765 188.48C640.285 190.507 642.045 193.12 642.045 196.32C642.045 198.773 641.298 200.587 639.805 201.76C638.312 202.933 636.392 203.52 634.045 203.52C631.805 203.52 629.832 203.04 628.125 202.08C630.045 200.267 631.005 197.973 631.005 195.2C631.005 193.387 630.312 191.947 628.925 190.88C627.538 189.707 625.725 189.12 623.485 189.12C621.032 189.12 619.112 189.813 617.725 191.2C616.338 192.587 615.645 194.293 615.645 196.32Z" fill="black"/>
<path d="M563.301 196.32C563.301 198.987 564.315 201.173 566.341 202.88C568.475 204.48 571.675 206.293 575.941 208.32C579.461 210.027 582.181 211.52 584.101 212.8C586.021 213.973 587.675 215.573 589.061 217.6C590.555 219.627 591.301 222.027 591.301 224.8C591.301 229.387 589.115 233.067 584.741 235.84C580.475 238.613 574.715 240 567.461 240C562.021 240 557.541 239.04 554.021 237.12C550.501 235.093 548.741 232.48 548.741 229.28C548.741 227.147 549.541 225.387 551.141 224C552.741 222.507 554.715 221.76 557.061 221.76C558.875 221.76 560.688 222.133 562.501 222.88C560.688 224.267 559.781 226.507 559.781 229.6C559.781 231.733 560.528 233.387 562.021 234.56C563.515 235.733 565.328 236.32 567.461 236.32C569.915 236.32 571.995 235.68 573.701 234.4C575.515 233.12 576.421 231.307 576.421 228.96C576.421 226.72 575.515 224.96 573.701 223.68C571.995 222.293 569.275 220.693 565.541 218.88C562.128 217.28 559.355 215.84 557.221 214.56C555.195 213.173 553.435 211.36 551.941 209.12C550.448 206.88 549.701 204.16 549.701 200.96C549.701 196.16 551.728 192.373 555.781 189.6C559.835 186.827 564.955 185.44 571.141 185.44C576.581 185.44 581.008 186.453 584.421 188.48C587.941 190.507 589.701 193.12 589.701 196.32C589.701 198.773 588.955 200.587 587.461 201.76C585.968 202.933 584.048 203.52 581.701 203.52C579.461 203.52 577.488 203.04 575.781 202.08C577.701 200.267 578.661 197.973 578.661 195.2C578.661 193.387 577.968 191.947 576.581 190.88C575.195 189.707 573.381 189.12 571.141 189.12C568.688 189.12 566.768 189.813 565.381 191.2C563.995 192.587 563.301 194.293 563.301 196.32Z" fill="black"/>
<path d="M485.899 212.8C485.899 204.373 488.299 197.707 493.099 192.8C498.005 187.893 504.619 185.44 512.939 185.44C521.259 185.44 527.872 187.947 532.779 192.96C537.685 197.867 540.139 204.48 540.139 212.8C540.139 221.12 537.685 227.733 532.779 232.64C527.872 237.547 521.259 240 512.939 240C504.619 240 498.005 237.547 493.099 232.64C488.299 227.733 485.899 221.12 485.899 212.8ZM523.979 213.12C523.979 205.973 522.965 200.16 520.939 195.68C518.912 191.093 516.352 188.8 513.259 188.8C509.845 188.8 507.072 191.04 504.939 195.52C502.805 199.893 501.739 205.653 501.739 212.8C501.739 220.053 502.699 225.813 504.619 230.08C506.645 234.347 509.312 236.48 512.619 236.48C515.925 236.48 518.645 234.347 520.779 230.08C522.912 225.707 523.979 220.053 523.979 213.12Z" fill="black"/>
<path d="M407.16 235.68C409.827 234.933 411.747 234.24 412.92 233.6C414.093 232.853 414.893 231.893 415.32 230.72C415.747 229.547 415.96 227.733 415.96 225.28V181.92C415.96 178.187 415.64 175.467 415 173.76C414.467 172.053 413.133 170.56 411 169.28L409.08 168.16L409.72 166.08C413.24 165.013 417.613 164.16 422.84 163.52C428.067 162.773 432.867 162.4 437.24 162.4C450.787 162.4 461.08 165.76 468.12 172.48C475.267 179.093 478.84 188.693 478.84 201.28C478.84 212.693 475.533 221.76 468.92 228.48C462.413 235.2 453.507 238.56 442.2 238.56H408.28L407.16 235.68ZM440.76 235.36C455.16 235.36 462.36 224 462.36 201.28C462.36 190.827 460.28 182.453 456.12 176.16C452.067 169.76 446.68 166.56 439.96 166.56C437.187 166.56 435.053 166.987 433.56 167.84C432.067 168.693 431.32 169.92 431.32 171.52V220.48C431.32 225.493 432.067 229.227 433.56 231.68C435.16 234.133 437.56 235.36 440.76 235.36Z" fill="black"/>
</svg>
